<?xml version="1.0" standalone="yes"?>

<svg version="1.1" viewBox="0.0 0.0 960.0 720.0" fill="none" stroke="none" stroke-linecap="square" stroke-miterlimit="10" xmlns="http://www.w3.org/2000/svg" xmlns:xlink="http://www.w3.org/1999/xlink"><clipPath id="p.0"><path d="m0 0l960.0 0l0 720.0l-960.0 0l0 -720.0z" clip-rule="nonzero"></path></clipPath><g clip-path="url(#p.0)"><path fill="#000000" fill-opacity="0.0" d="m0 0l960.0 0l0 720.0l-960.0 0z" fill-rule="nonzero"></path><path fill="#000000" fill-opacity="0.0" d="m19.34446 44.01441l0 -22.70866" fill-rule="nonzero"></path><path stroke="#000000" stroke-width="1.0" stroke-linejoin="round" stroke-linecap="butt" d="m19.34446 40.22441l0 -18.918663" fill-rule="evenodd"></path><path fill="#000000" stroke="#000000" stroke-width="1.0" stroke-linecap="butt" d="m19.34446 43.514412c-0.9085083 0 -1.6449986 -0.73649216 -1.6449986 -1.6450005c0 -0.9085083 0.73649025 -1.6450005 1.6449986 -1.6450005c0.9085083 0 1.6450005 0.73649216 1.6450005 1.6450005c0 0.9085083 -0.73649216 1.6450005 -1.6450005 1.6450005z" fill-rule="nonzero"></path><path fill="#000000" fill-opacity="0.0" d="m2.095116 10.220104l17.259842 10.64567" fill-rule="nonzero"></path><path stroke="#000000" stroke-width="1.0" stroke-linejoin="round" stroke-linecap="butt" d="m5.3208785 12.209716l14.0340805 8.656056" fill-rule="evenodd"></path><path fill="#000000" stroke="#000000" stroke-width="1.0" stroke-linecap="butt" d="m2.5206783 10.482586c0.47693396 -0.7732544 1.4904115 -1.0134687 2.263665 -0.5365343c0.7732539 0.47693348 1.0134687 1.4904108 0.5365348 2.2636642c-0.47693396 0.7732544 -1.4904113 1.0134687 -2.263665 0.53653526c-0.7732539 -0.47693443 -1.0134687 -1.4904118 -0.5365348 -2.2636652z" fill-rule="nonzero"></path><path fill="#000000" fill-opacity="0.0" d="m36.104958 10.4232025l-17.259842 10.645668" fill-rule="nonzero"></path><path stroke="#000000" stroke-width="1.0" stroke-linejoin="round" stroke-linecap="butt" d="m32.879196 12.412814l-14.0340805 8.656058" fill-rule="evenodd"></path><path fill="#000000" stroke="#000000" stroke-width="1.0" stroke-linecap="butt" d="m35.679398 10.685684c0.47693253 0.77325344 0.23671722 1.7867308 -0.5365372 2.2636652c-0.7732506 0.47693348 -1.7867317 0.23671913 -2.2636642 -0.53653526c-0.47693253 -0.77325344 -0.23671722 -1.7867308 0.53653336 -2.2636652c0.7732544 -0.47693348 1.7867317 -0.23671913 2.263668 0.53653526z" fill-rule="nonzero"></path><path fill="#000000" fill-opacity="0.0" d="m19.34446 2.0662467l0 25.732285" fill-rule="nonzero"></path><path stroke="#000000" stroke-width="1.0" stroke-linejoin="round" stroke-linecap="butt" d="m19.34446 5.8562465l0 21.942284" fill-rule="evenodd"></path><path fill="#000000" stroke="#000000" stroke-width="1.0" stroke-linecap="butt" d="m19.34446 2.5662467c0.9085083 0 1.6450005 0.73649144 1.6450005 1.6449997c0 0.9085083 -0.73649216 1.645 -1.6450005 1.645c-0.9085083 0 -1.6449986 -0.7364917 -1.6449986 -1.645c0 -0.9085083 0.73649025 -1.6449997 1.6449986 -1.6449997z" fill-rule="nonzero"></path></g></svg>

